<?xml version="1.0" encoding="UTF-8"?>
<svg id="Ebene_1" data-name="Ebene 1" xmlns="http://www.w3.org/2000/svg" viewBox="0 0 131.42 58.2">
  <defs>
    <style>
      .cls-1 {
        fill: #fff;
      }
    </style>
  </defs>
  <g>
    <path class="cls-1" d="M28.55,44.88h-1.13c-3.83,0-7.2-.3-10.06-.92-2.87-.61-5.3-1.54-7.26-2.79-3.22-2.08-5.72-4.7-7.47-7.88-1.75-3.18-2.63-6.67-2.63-10.46s.87-7.27,2.62-10.43,4.23-5.77,7.48-7.85c1.96-1.25,4.39-2.18,7.26-2.79,2.87-.62,6.23-.92,10.06-.92h1.13v10.02c-.28-.02-.59-.04-.9-.05-.32-.01-.78-.01-1.37-.01-3.86,0-6.91.57-9.19,1.69-2.28,1.13-3.91,2.88-4.89,5.24h16.36v9.83H11.98c.73,2.43,2.32,4.26,4.74,5.47,2.42,1.23,5.68,1.84,9.78,1.84.56,0,.98,0,1.27-.01.3-.01.57-.02.79-.02v10.05h0ZM32.32,44.88v-28.38c0-4.95,1.48-8.93,4.43-11.97,2.95-3.03,6.85-4.54,11.7-4.54,4.44,0,8.18,1.48,11.19,4.45,3,2.96,4.51,6.61,4.51,10.94,0,4.62-1.62,8.34-4.85,11.15-3.24,2.81-7.54,4.22-12.92,4.22h-1.13v-10.53h1.69c1.87,0,3.33-.45,4.4-1.34,1.06-.89,1.6-2.11,1.6-3.65,0-1.35-.45-2.48-1.34-3.37-.89-.89-2.03-1.34-3.4-1.34-1.53,0-2.74.51-3.6,1.55-.86,1.04-1.29,2.49-1.29,4.36v28.44h-10.97ZM65.85,44.88v-10.53h15.19c.88,0,1.56-.19,2.05-.56.48-.37.73-.9.73-1.6,0-.62-.24-1.23-.73-1.83-.49-.61-1.25-1.23-2.28-1.87l-8.47-5.11c-1.93-1.19-3.48-2.72-4.63-4.6-1.14-1.87-1.72-3.8-1.72-5.8s.33-3.67.99-5.24c.65-1.56,1.63-2.9,2.92-4.01,1.22-1.06,2.71-1.82,4.48-2.26,1.76-.44,4.63-.66,8.6-.66h10.06v10.08h-11.55c-1.6,0-2.7.13-3.31.39-.6.25-.9.68-.9,1.3s.23,1.19.7,1.76c.47.59,1.21,1.18,2.18,1.77l8.29,4.93c2.35,1.43,4.15,3.13,5.38,5.11,1.23,1.96,1.85,4.12,1.85,6.43,0,1.99-.42,3.83-1.26,5.54-.84,1.71-2.02,3.09-3.51,4.16-1.31.92-2.79,1.58-4.43,1.98-1.64.4-4.24.6-7.82.6h-12.8Z"/>
    <path class="cls-1" d="M121.04,44.88v-14.93c0-2.29-.53-4.02-1.6-5.19-1.07-1.16-2.67-1.75-4.78-1.75-1.74,0-3.16.57-4.25,1.7-1.08,1.14-1.63,2.64-1.63,4.48s.57,3.42,1.72,4.55,2.71,1.69,4.7,1.69c.48,0,1.04-.06,1.67-.19.64-.12,1.46-.33,2.49-.64v10.22c-.85.17-1.65.29-2.42.38-.76.08-1.47.13-2.12.13-4.84,0-8.84-1.52-11.97-4.56-3.14-3.04-4.71-6.89-4.71-11.58s1.57-8.54,4.71-11.58c3.14-3.04,7.12-4.56,11.96-4.56,3.34,0,6.35.81,9.05,2.42,2.71,1.61,4.73,3.81,6.08,6.61.52,1.06.9,2.25,1.13,3.55.23,1.3.34,3.37.34,6.21v13.05h-10.38Z"/>
  </g>
  <g>
    <path class="cls-1" d="M32.36,56.1s-.04-.06-.04-.11v-3.09s.01-.08.04-.11.06-.04.11-.04h.27s.08.01.1.04c.03.03.04.06.04.11v.22c.24-.29.55-.44.95-.44.48,0,.82.2,1.02.6.1-.18.25-.33.45-.44s.41-.16.65-.16c.36,0,.65.12.87.37s.34.6.34,1.06v1.89s-.01.08-.04.11c-.03.03-.06.04-.11.04h-.28s-.08-.01-.11-.04-.04-.06-.04-.11v-1.83c0-.35-.07-.6-.22-.75-.14-.15-.33-.23-.57-.23-.21,0-.39.08-.54.23-.15.15-.22.4-.22.74v1.83s-.01.08-.04.11-.06.04-.11.04h-.29s-.08-.01-.11-.04-.04-.06-.04-.11v-1.83c0-.34-.08-.59-.23-.74s-.34-.23-.56-.23c-.21,0-.39.08-.54.23s-.23.4-.23.74v1.83s-.01.08-.04.11-.06.04-.11.04h-.29s-.08-.01-.11-.04Z"/>
    <path class="cls-1" d="M38.4,55.8c-.27-.28-.41-.65-.44-1.13v-.22s0-.22,0-.22c.03-.47.17-.84.44-1.12.27-.28.62-.42,1.06-.42.48,0,.85.15,1.11.46s.39.72.39,1.24v.12s-.01.08-.04.11-.06.04-.11.04h-2.26v.06c.01.28.1.52.26.72.16.2.37.3.64.3.2,0,.37-.04.5-.12.13-.08.23-.16.29-.25.04-.05.07-.08.09-.09.02-.01.06-.02.11-.02h.29s.07.01.1.03c.03.02.04.05.04.08,0,.1-.06.21-.18.35-.12.13-.28.25-.5.35-.22.1-.46.15-.74.15-.44,0-.8-.14-1.06-.41ZM40.37,54.21v-.02c0-.3-.08-.55-.25-.74-.17-.19-.39-.29-.67-.29s-.5.1-.67.29c-.16.19-.24.44-.24.74v.02h1.82Z"/>
    <path class="cls-1" d="M41.8,56.1s-.04-.06-.04-.11v-3.09s.01-.08.04-.11.06-.04.11-.04h.27s.08.01.1.04c.03.03.04.06.04.11v.22c.24-.29.55-.44.95-.44.48,0,.82.2,1.02.6.1-.18.25-.33.45-.44s.41-.16.65-.16c.36,0,.65.12.87.37s.34.6.34,1.06v1.89s-.01.08-.04.11c-.03.03-.06.04-.11.04h-.28s-.08-.01-.11-.04-.04-.06-.04-.11v-1.83c0-.35-.07-.6-.22-.75-.14-.15-.33-.23-.57-.23-.21,0-.39.08-.54.23-.15.15-.22.4-.22.74v1.83s-.01.08-.04.11-.06.04-.11.04h-.29s-.08-.01-.11-.04-.04-.06-.04-.11v-1.83c0-.34-.08-.59-.23-.74s-.34-.23-.56-.23c-.21,0-.39.08-.54.23s-.23.4-.23.74v1.83s-.01.08-.04.11-.06.04-.11.04h-.29s-.08-.01-.11-.04Z"/>
    <path class="cls-1" d="M48.14,55.71v.28s-.01.08-.04.11c-.03.03-.06.04-.11.04h-.27s-.08-.01-.11-.04c-.03-.03-.04-.06-.04-.11v-4.33s.01-.08.04-.11c.03-.03.06-.04.11-.04h.29s.08.01.11.04.04.06.04.11v1.51c.24-.32.6-.48,1.06-.48s.8.15,1.03.45c.23.3.35.67.36,1.12,0,.05,0,.11,0,.2s0,.15,0,.2c-.01.45-.13.82-.36,1.12-.23.3-.57.45-1.03.45s-.83-.16-1.08-.5ZM49.77,55.41c.14-.2.22-.45.23-.77,0-.04,0-.11,0-.19,0-.84-.31-1.25-.93-1.25-.3,0-.52.1-.68.29-.16.19-.24.42-.25.69,0,.05,0,.13,0,.25s0,.2,0,.25c0,.28.09.52.24.72.15.2.38.3.69.3s.54-.1.69-.29Z"/>
    <path class="cls-1" d="M51.71,55.8c-.26-.28-.41-.65-.44-1.13v-.22s0-.22,0-.22c.03-.47.17-.84.44-1.12.27-.28.62-.42,1.06-.42.48,0,.85.15,1.11.46s.4.72.4,1.24v.12s-.01.08-.04.11-.06.04-.11.04h-2.26v.06c.01.28.1.52.26.72.16.2.37.3.64.3.2,0,.37-.04.5-.12.13-.08.22-.16.29-.25.04-.05.07-.08.09-.09.02-.01.06-.02.11-.02h.29s.07.01.1.03c.03.02.04.05.04.08,0,.1-.06.21-.18.35-.12.13-.28.25-.5.35s-.46.15-.74.15c-.44,0-.8-.14-1.06-.41ZM53.69,54.21v-.02c0-.3-.08-.55-.25-.74-.17-.19-.39-.29-.67-.29s-.5.1-.67.29c-.16.19-.24.44-.24.74v.02h1.82Z"/>
    <path class="cls-1" d="M55.12,56.1s-.04-.06-.04-.11v-3.09s.01-.08.04-.11.06-.05.11-.05h.27s.09.01.11.04c.03.03.04.07.04.11v.29c.18-.3.48-.44.91-.44h.25s.08.01.11.04c.03.03.04.06.04.11v.24s-.01.08-.04.11c-.03.03-.06.04-.11.04h-.37c-.24,0-.43.07-.56.21-.14.14-.21.33-.21.57v1.92s-.02.08-.05.11c-.03.03-.07.04-.11.04h-.29s-.08-.01-.11-.04Z"/>
    <path class="cls-1" d="M59.26,55.81c-.26-.27-.4-.63-.41-1.08v-.28s0-.28,0-.28c.02-.45.16-.81.42-1.08s.63-.4,1.1-.4.84.13,1.1.4c.26.27.4.63.42,1.08,0,.1.01.19.01.28s0,.18-.01.28c-.02.45-.16.81-.41,1.08-.26.27-.63.4-1.11.4s-.85-.13-1.11-.4ZM61.02,55.46c.16-.18.25-.43.26-.76,0-.04,0-.13,0-.25s0-.2,0-.25c-.01-.33-.1-.58-.26-.76-.16-.18-.38-.26-.66-.26s-.5.09-.66.26c-.16.18-.25.43-.26.76v.25s0,.25,0,.25c.01.33.1.58.26.76.16.18.38.26.66.26s.5-.09.66-.26Z"/>
    <path class="cls-1" d="M63.06,56.1s-.04-.06-.04-.11v-2.74h-.56s-.08-.01-.11-.04-.04-.06-.04-.1v-.21s.01-.08.04-.11.06-.04.11-.04h.56v-.33c0-.35.09-.63.26-.82.17-.19.45-.29.85-.29h.39s.08.01.11.04.04.06.04.11v.21s-.01.08-.04.1c-.03.03-.06.04-.11.04h-.37c-.2,0-.34.05-.42.16-.08.1-.12.27-.12.48v.29h.84s.08.01.11.04c.03.03.04.06.04.11v.21s-.01.08-.04.1c-.03.03-.06.04-.11.04h-.84v2.74s-.01.08-.04.11-.06.04-.11.04h-.28s-.08-.01-.11-.04Z"/>
    <path class="cls-1" d="M67.52,56.5c-.35-.15-.62-.34-.8-.58-.18-.24-.28-.5-.29-.79,0-.04.02-.08.05-.12.03-.04.07-.05.12-.05h.75c.06,0,.11.01.15.04.04.03.07.07.11.12.05.19.18.34.37.47.19.13.46.19.8.19.38,0,.67-.06.87-.19.19-.13.29-.31.29-.53,0-.15-.05-.27-.15-.37s-.25-.18-.45-.26c-.2-.07-.5-.16-.89-.27-.65-.15-1.12-.36-1.42-.61s-.45-.61-.45-1.09c0-.32.09-.6.26-.85.18-.25.43-.45.75-.59.33-.14.71-.21,1.14-.21.46,0,.85.08,1.18.24.33.16.58.36.76.6s.26.48.28.71c0,.04-.02.08-.05.12-.03.04-.07.05-.12.05h-.78c-.12,0-.2-.05-.25-.15-.03-.18-.13-.32-.32-.44-.19-.12-.42-.18-.69-.18-.3,0-.54.06-.71.17-.17.11-.26.28-.26.5,0,.15.04.27.13.37.09.1.23.19.41.26.19.07.46.16.81.25.49.11.88.23,1.16.37.29.14.5.31.64.52.14.21.21.47.21.8,0,.36-.1.67-.29.93-.19.26-.47.46-.82.6-.35.14-.76.21-1.23.21-.49,0-.92-.07-1.27-.22Z"/>
    <path class="cls-1" d="M72.13,56.58s-.06-.08-.06-.14v-5.35c0-.06.02-.11.05-.15.04-.04.08-.06.14-.06h3.63c.06,0,.11.02.15.06.04.04.06.09.06.15v.55c0,.06-.02.11-.06.14-.04.04-.09.05-.15.05h-2.7v1.44h2.52c.06,0,.11.02.15.06.04.04.06.09.06.15v.52c0,.06-.02.11-.06.14s-.09.05-.15.05h-2.52v1.49h2.76c.06,0,.11.02.15.05s.06.08.06.14v.56c0,.06-.02.11-.06.14-.04.04-.09.05-.15.05h-3.69c-.05,0-.1-.02-.14-.06Z"/>
    <path class="cls-1" d="M77.26,56.58s-.06-.08-.06-.14v-5.35c0-.06.02-.11.05-.15.04-.04.08-.06.14-.06h2.13c.67,0,1.2.16,1.58.47.38.31.57.76.57,1.33,0,.4-.1.74-.29,1.01-.19.27-.46.47-.81.59l1.19,2.1s.02.06.02.09c0,.05-.02.09-.05.12-.04.03-.08.05-.12.05h-.76c-.09,0-.16-.02-.21-.06s-.09-.09-.13-.16l-1.05-1.95h-1.13v1.97c0,.06-.02.1-.06.14s-.09.06-.15.06h-.76c-.05,0-.1-.02-.14-.06ZM79.5,53.53c.33,0,.58-.07.74-.22.16-.15.25-.36.25-.64s-.08-.49-.25-.65-.41-.23-.74-.23h-1.14v1.73h1.14Z"/>
    <path class="cls-1" d="M83.19,56.16c-.42-.38-.64-.94-.66-1.69,0-.16,0-.39,0-.7s0-.55,0-.71c.02-.73.25-1.29.67-1.68s1.01-.58,1.74-.58,1.3.19,1.73.58.66.95.68,1.68c.01.32.02.55.02.71s0,.38-.02.7c-.02.75-.24,1.31-.66,1.69-.42.38-1,.57-1.75.57s-1.34-.19-1.75-.57ZM85.82,55.44c.21-.22.33-.56.35-1.01.01-.33.02-.55.02-.67,0-.13,0-.35-.02-.67-.02-.45-.13-.79-.35-1.01-.22-.22-.51-.33-.86-.33s-.65.11-.87.33c-.22.22-.33.56-.35,1.01,0,.16,0,.38,0,.67s0,.5,0,.67c.01.45.12.79.34,1.01s.51.33.88.33.66-.11.87-.33Z"/>
    <path class="cls-1" d="M90.37,56.58s-.06-.08-.06-.14v-5.35c0-.06.02-.11.05-.15.04-.04.08-.06.14-.06h3.63c.06,0,.11.02.15.06.04.04.06.09.06.15v.55c0,.06-.02.11-.06.14-.04.04-.09.05-.15.05h-2.7v1.44h2.52c.06,0,.11.02.15.06.04.04.06.09.06.15v.52c0,.06-.02.11-.06.14s-.09.05-.15.05h-2.52v1.49h2.76c.06,0,.11.02.15.05s.06.08.06.14v.56c0,.06-.02.11-.06.14-.04.04-.09.05-.15.05h-3.69c-.05,0-.1-.02-.14-.06Z"/>
    <path class="cls-1" d="M95.5,56.58s-.06-.08-.06-.14v-5.35c0-.06.02-.11.05-.15.04-.04.08-.06.14-.06h.67c.1,0,.19.05.25.16l1.59,2.94,1.59-2.94c.06-.1.14-.16.25-.16h.66c.06,0,.11.02.15.06.04.04.06.09.06.15v5.35c0,.06-.02.11-.06.14-.04.04-.09.05-.15.05h-.71c-.05,0-.1-.02-.14-.06-.04-.04-.06-.08-.06-.14v-3.54l-1.14,2.17c-.06.12-.15.18-.27.18h-.35c-.12,0-.21-.06-.28-.18l-1.14-2.17v3.54c0,.06-.02.1-.05.14-.04.04-.08.06-.14.06h-.71c-.05,0-.1-.02-.14-.06Z"/>
    <path class="cls-1" d="M102.86,56.5c-.35-.15-.62-.34-.8-.58-.18-.24-.28-.5-.29-.79,0-.04.02-.08.05-.12.03-.04.07-.05.12-.05h.75c.06,0,.11.01.15.04.04.03.07.07.11.12.05.19.18.34.37.47.19.13.46.19.8.19.38,0,.67-.06.87-.19.19-.13.29-.31.29-.53,0-.15-.05-.27-.15-.37s-.25-.18-.45-.26c-.2-.07-.5-.16-.89-.27-.65-.15-1.12-.36-1.42-.61s-.45-.61-.45-1.09c0-.32.09-.6.26-.85.18-.25.43-.45.75-.59.33-.14.71-.21,1.14-.21.46,0,.85.08,1.18.24.33.16.58.36.76.6s.26.48.28.71c0,.04-.02.08-.05.12-.03.04-.07.05-.12.05h-.78c-.12,0-.2-.05-.25-.15-.03-.18-.13-.32-.32-.44-.19-.12-.42-.18-.69-.18-.3,0-.54.06-.71.17-.17.11-.26.28-.26.5,0,.15.04.27.13.37.09.1.23.19.41.26.19.07.46.16.81.25.49.11.88.23,1.16.37.29.14.5.31.64.52.14.21.21.47.21.8,0,.36-.1.67-.29.93-.19.26-.47.46-.82.6-.35.14-.76.21-1.23.21-.49,0-.92-.07-1.27-.22Z"/>
    <path class="cls-1" d="M109.79,56.13c-.4-.4-.61-.93-.63-1.6,0-.16,0-.42,0-.77s0-.61,0-.77c.02-.67.23-1.2.63-1.59s.95-.59,1.67-.59c.48,0,.89.09,1.23.26.33.18.59.39.76.63.17.24.26.47.27.68v.02s-.02.08-.05.11c-.04.03-.08.05-.12.05h-.46s-.09-.01-.11-.03-.05-.06-.07-.12c-.09-.26-.25-.47-.48-.65-.24-.18-.55-.26-.95-.26-.46,0-.82.13-1.09.38-.26.25-.4.64-.42,1.17,0,.16,0,.4,0,.73s0,.57,0,.73c.02.53.16.92.42,1.18.26.25.63.38,1.09.38s.84-.13,1.12-.38c.28-.26.42-.64.42-1.15v-.35h-1.26c-.06,0-.1-.02-.14-.06s-.05-.08-.05-.14v-.25c0-.05.02-.1.05-.14.04-.04.08-.06.14-.06h1.84c.06,0,.11.02.14.05s.05.08.05.14v.78c0,.44-.09.83-.28,1.17-.18.34-.45.6-.8.78-.35.18-.76.28-1.24.28-.71,0-1.27-.2-1.66-.59Z"/>
    <path class="cls-1" d="M114.9,56.59s-.05-.08-.05-.14v-3.89c0-.05.02-.1.05-.14.04-.04.08-.06.14-.06h.35c.06,0,.11.02.14.05.04.04.05.08.05.14v.36c.23-.37.61-.56,1.14-.56h.32c.06,0,.11.02.14.05.03.03.05.08.05.14v.3c0,.05-.02.1-.05.14-.03.04-.08.05-.14.05h-.47c-.3,0-.54.09-.71.26s-.26.41-.26.72v2.43c0,.05-.02.1-.06.14-.04.04-.08.05-.14.05h-.37c-.06,0-.1-.02-.14-.05Z"/>
    <path class="cls-1" d="M118.19,56.21c-.33-.34-.5-.79-.52-1.36v-.35s0-.35,0-.35c.02-.56.2-1.02.53-1.36.33-.34.79-.51,1.39-.51s1.05.17,1.39.51c.33.34.51.79.53,1.36.01.12.02.24.02.35s0,.23-.02.35c-.02.56-.2,1.02-.52,1.36s-.79.51-1.39.51-1.07-.17-1.39-.51ZM120.42,55.77c.21-.22.32-.54.33-.96,0-.06,0-.16,0-.31s0-.26,0-.31c-.02-.42-.13-.74-.33-.96-.21-.22-.48-.33-.83-.33s-.63.11-.83.33c-.21.22-.32.54-.33.96v.31s0,.31,0,.31c.02.42.13.74.33.96.21.22.48.33.83.33s.63-.11.83-.33Z"/>
    <path class="cls-1" d="M122.94,56.22c-.28-.34-.43-.79-.43-1.35v-2.32c0-.06.02-.1.05-.14.04-.04.08-.05.14-.05h.38c.05,0,.1.02.14.05.04.04.05.08.05.14v2.28c0,.83.36,1.25,1.09,1.25.35,0,.63-.11.83-.33.21-.22.31-.53.31-.92v-2.28c0-.06.02-.1.05-.14.04-.04.08-.05.14-.05h.38c.06,0,.1.02.14.05s.05.08.05.14v3.9c0,.05-.02.1-.05.14-.04.04-.08.05-.14.05h-.35c-.06,0-.1-.02-.14-.05-.04-.04-.05-.08-.05-.14v-.37c-.16.21-.35.37-.56.48-.21.11-.49.16-.81.16-.52,0-.92-.17-1.21-.51Z"/>
    <path class="cls-1" d="M127.55,58.16s-.05-.08-.05-.14v-5.46c0-.06.02-.11.05-.14.04-.03.08-.05.14-.05h.35c.06,0,.11.02.14.05.03.03.05.08.05.14v.36c.32-.42.77-.63,1.36-.63s1.01.18,1.3.55c.29.36.44.83.46,1.39,0,.06,0,.15,0,.28s0,.22,0,.28c-.02.56-.17,1.02-.46,1.39-.29.37-.72.55-1.3.55s-1.03-.21-1.33-.63v1.92c0,.06-.02.1-.05.14-.04.04-.08.05-.14.05h-.37c-.05,0-.1-.02-.14-.05ZM130.29,55.71c.18-.25.28-.57.3-.97,0-.05,0-.13,0-.24,0-1.05-.39-1.58-1.17-1.58-.38,0-.67.13-.87.38s-.3.56-.31.9c0,.06,0,.17,0,.32s0,.26,0,.32c.01.33.12.62.32.87.2.24.49.37.86.37.39,0,.68-.12.86-.37Z"/>
  </g>
</svg>