<?xml version="1.0" encoding="UTF-8"?>
<svg id="uuid-6a529137-ea8f-4724-a7ad-2ee0795e4ebc" data-name="Laag 1" xmlns="http://www.w3.org/2000/svg" viewBox="0 0 283.465 283.465">
  <defs>
    <style>
      .uuid-0b93c5a5-527a-4e4a-a4ba-405941b8916e {
        fill: #fff;
      }
    </style>
  </defs>
  <path class="uuid-0b93c5a5-527a-4e4a-a4ba-405941b8916e" d="M171.221,123.826c-2.021,0-3.71-.296-5.068-.883-1.356-.589-2.383-1.358-3.079-2.304-.694-.948-1.062-1.96-1.104-3.033,0-.167,.063-.32,.19-.456,.127-.138,.283-.206,.473-.206h3.347c.272,0,.484,.057,.631,.173,.147,.116,.274,.26,.379,.427,.147,.357,.39,.71,.727,1.058,.337,.346,.789,.631,1.356,.852,.569,.221,1.284,.331,2.148,.331,1.367,0,2.4-.226,3.093-.679,.696-.453,1.042-1.056,1.042-1.814,0-.548-.184-.99-.552-1.327-.368-.337-.951-.642-1.752-.915-.8-.272-1.853-.569-3.158-.885-1.579-.357-2.92-.804-4.025-1.341-1.106-.536-1.936-1.226-2.493-2.067-.559-.843-.837-1.906-.837-3.191,0-1.242,.348-2.352,1.042-3.331,.694-.977,1.675-1.746,2.937-2.304,1.262-.558,2.766-.837,4.514-.837,1.41,0,2.652,.191,3.725,.57,1.075,.377,1.975,.872,2.7,1.481,.727,.613,1.279,1.264,1.658,1.96,.379,.694,.58,1.367,.6,2.021,0,.167-.063,.32-.19,.456-.127,.138-.283,.206-.475,.206h-3.504c-.19,0-.368-.044-.536-.127-.169-.083-.317-.232-.444-.442-.105-.569-.473-1.058-1.104-1.468-.631-.41-1.441-.615-2.431-.615-1.053,0-1.884,.188-2.495,.569-.609,.377-.915,.968-.915,1.767,0,.506,.158,.931,.475,1.277,.315,.35,.835,.659,1.56,.933,.727,.274,1.7,.558,2.92,.854,1.833,.377,3.327,.835,4.485,1.371,1.156,.537,2.004,1.216,2.541,2.037,.537,.821,.804,1.862,.804,3.127,0,1.41-.39,2.62-1.167,3.629-.78,1.012-1.859,1.785-3.237,2.322-1.378,.537-2.974,.804-4.783,.804"/>
  <path class="uuid-0b93c5a5-527a-4e4a-a4ba-405941b8916e" d="M184.148,123.509c-.232,0-.421-.074-.569-.221-.147-.147-.221-.335-.221-.567v-20.522c0-.232,.074-.421,.221-.569,.147-.147,.337-.223,.569-.223h14.271c.23,0,.42,.075,.569,.223,.145,.147,.221,.337,.221,.569v2.462c0,.232-.075,.421-.221,.569-.149,.147-.339,.221-.569,.221h-10.261v4.989h9.565c.232,0,.421,.074,.569,.219,.147,.149,.221,.337,.221,.569v2.306c0,.232-.074,.421-.221,.569-.147,.145-.337,.221-.569,.221h-9.565v5.147h10.513c.23,0,.42,.074,.569,.219,.147,.147,.221,.337,.221,.569v2.464c0,.232-.074,.42-.221,.567-.149,.147-.339,.221-.569,.221h-14.523Z"/>
  <path class="uuid-0b93c5a5-527a-4e4a-a4ba-405941b8916e" d="M207.667,111.45h4.104c1.157,0,2.021-.269,2.587-.806,.57-.537,.854-1.277,.854-2.227,0-.966-.28-1.73-.835-2.287-.559-.558-1.428-.837-2.606-.837h-4.104v6.157Zm-4.168,12.059c-.232,0-.421-.074-.569-.221-.147-.147-.221-.335-.221-.567v-20.522c0-.232,.074-.421,.221-.569,.147-.147,.337-.223,.569-.223h8.366c2.609,0,4.672,.607,6.189,1.816,1.514,1.213,2.273,2.954,2.273,5.226,0,1.535-.374,2.821-1.121,3.852s-1.741,1.789-2.983,2.273l4.483,7.924c.064,.127,.096,.243,.096,.348,0,.169-.064,.32-.19,.458-.127,.136-.285,.204-.473,.204h-3.443c-.379,0-.662-.099-.852-.298-.19-.202-.326-.385-.41-.554l-3.883-7.262h-3.883v7.326c0,.232-.075,.42-.221,.567-.149,.147-.339,.221-.569,.221h-3.379Z"/>
  <path class="uuid-0b93c5a5-527a-4e4a-a4ba-405941b8916e" d="M232.737,119.784c1.24,0,2.262-.374,3.062-1.121,.799-.747,1.22-1.951,1.262-3.614,.042-.926,.064-1.794,.064-2.606s-.022-1.667-.064-2.573c-.02-1.093-.221-1.995-.6-2.7s-.883-1.22-1.514-1.546c-.633-.328-1.369-.489-2.21-.489-.801,0-1.522,.162-2.162,.489-.644,.326-1.154,.841-1.533,1.546-.377,.705-.589,1.607-.631,2.7-.02,.905-.031,1.763-.031,2.573s.011,1.68,.031,2.606c.063,1.664,.491,2.867,1.279,3.614,.789,.747,1.805,1.121,3.047,1.121m0,4.041c-1.895,0-3.537-.317-4.924-.946-1.391-.633-2.475-1.584-3.252-2.858-.78-1.273-1.202-2.878-1.264-4.814-.02-.905-.031-1.807-.031-2.7s.011-1.805,.031-2.731c.063-1.895,.489-3.489,1.279-4.785,.789-1.294,1.884-2.267,3.283-2.92,1.399-.65,3.025-.979,4.878-.979s3.478,.329,4.878,.979c1.399,.653,2.497,1.627,3.298,2.92,.801,1.295,1.222,2.889,1.264,4.785,.04,.926,.063,1.837,.063,2.731s-.022,1.794-.063,2.7c-.064,1.936-.486,3.541-1.264,4.814-.778,1.273-1.857,2.225-3.235,2.858-1.378,.629-3.027,.946-4.941,.946"/>
  <path class="uuid-0b93c5a5-527a-4e4a-a4ba-405941b8916e" d="M163.644,153.185c-.232,0-.421-.074-.569-.221s-.221-.335-.221-.567v-20.522c0-.232,.074-.421,.221-.569,.147-.147,.337-.223,.569-.223h14.271c.23,0,.42,.075,.569,.223,.145,.147,.221,.337,.221,.569v2.462c0,.232-.075,.421-.221,.569-.149,.147-.339,.221-.569,.221h-10.261v4.987h9.565c.232,0,.421,.075,.569,.221,.147,.149,.221,.337,.221,.569v2.306c0,.232-.074,.421-.221,.569-.147,.145-.337,.221-.569,.221h-9.565v5.147h10.513c.23,0,.42,.074,.569,.219,.147,.147,.221,.337,.221,.569v2.464c0,.232-.074,.42-.221,.567-.149,.147-.339,.221-.569,.221h-14.523Z"/>
  <path class="uuid-0b93c5a5-527a-4e4a-a4ba-405941b8916e" d="M182.994,153.185c-.21,0-.396-.074-.552-.221-.158-.147-.237-.335-.237-.567v-20.522c0-.232,.079-.421,.237-.569,.156-.147,.342-.223,.552-.223h2.906c.315,0,.552,.086,.71,.254,.156,.169,.258,.294,.3,.379l5.872,10.765,5.87-10.765c.064-.085,.169-.21,.317-.379,.147-.167,.379-.254,.696-.254h2.904c.232,0,.42,.075,.569,.223,.147,.147,.221,.337,.221,.569v20.522c0,.232-.074,.42-.221,.567-.149,.147-.337,.221-.569,.221h-3.158c-.23,0-.421-.074-.567-.221-.149-.147-.221-.335-.221-.567v-12.85l-4.041,7.609c-.085,.188-.212,.357-.379,.504-.169,.147-.401,.221-.696,.221h-1.452c-.274,0-.495-.074-.664-.221-.167-.147-.304-.317-.41-.504l-4.039-7.609v12.85c0,.232-.074,.42-.223,.567-.145,.147-.337,.221-.567,.221h-3.158Z"/>
  <path class="uuid-0b93c5a5-527a-4e4a-a4ba-405941b8916e" d="M215.577,153.501c-2.021,0-3.71-.296-5.068-.883-1.356-.589-2.383-1.358-3.079-2.304-.694-.948-1.062-1.96-1.104-3.033,0-.167,.063-.32,.19-.456,.127-.138,.283-.206,.473-.206h3.347c.272,0,.484,.057,.631,.173,.147,.116,.274,.259,.379,.427,.147,.357,.39,.71,.727,1.058,.337,.346,.789,.631,1.356,.852,.569,.221,1.284,.331,2.148,.331,1.367,0,2.4-.226,3.093-.679,.696-.453,1.042-1.056,1.042-1.814,0-.548-.184-.99-.552-1.327-.368-.337-.951-.642-1.752-.915-.8-.272-1.853-.569-3.158-.885-1.579-.357-2.92-.804-4.025-1.342-1.106-.535-1.936-1.226-2.493-2.067-.559-.843-.837-1.906-.837-3.191,0-1.242,.348-2.352,1.042-3.331,.694-.977,1.675-1.746,2.937-2.304,1.262-.558,2.766-.837,4.514-.837,1.41,0,2.652,.191,3.725,.57,1.075,.377,1.975,.872,2.7,1.481,.727,.613,1.279,1.264,1.658,1.96,.379,.694,.58,1.367,.6,2.021,0,.167-.063,.32-.19,.456-.127,.138-.283,.206-.475,.206h-3.504c-.19,0-.368-.044-.536-.127-.169-.083-.317-.232-.444-.442-.105-.569-.473-1.058-1.104-1.468-.631-.41-1.441-.615-2.431-.615-1.053,0-1.884,.188-2.495,.569-.609,.377-.915,.968-.915,1.767,0,.506,.158,.931,.475,1.277,.315,.35,.835,.659,1.562,.933,.725,.274,1.699,.558,2.919,.854,1.833,.377,3.327,.835,4.485,1.371,1.156,.537,2.004,1.216,2.541,2.037,.537,.821,.804,1.862,.804,3.127,0,1.41-.39,2.62-1.167,3.631-.78,1.01-1.859,1.783-3.237,2.321-1.378,.536-2.974,.804-4.783,.804"/>
  <path class="uuid-0b93c5a5-527a-4e4a-a4ba-405941b8916e" d="M170.653,182.612c-1.831,0-3.384-.348-4.658-1.042-1.273-.696-2.241-1.673-2.904-2.937-.662-1.262-1.027-2.735-1.089-4.418-.02-.948-.031-1.943-.031-2.985s.011-2.037,.031-2.983c.063-1.684,.427-3.152,1.089-4.404,.662-1.253,1.636-2.227,2.92-2.92,1.283-.694,2.83-1.043,4.641-1.043,1.492,0,2.773,.212,3.835,.631,1.064,.421,1.936,.955,2.622,1.595,.683,.642,1.192,1.305,1.529,1.989,.337,.683,.517,1.268,.537,1.752,.02,.188-.031,.342-.158,.458s-.294,.175-.504,.175h-1.421c-.19,0-.328-.044-.412-.129-.083-.083-.167-.23-.252-.44-.21-.611-.541-1.189-.994-1.737-.453-.548-1.064-1.005-1.831-1.375-.769-.368-1.752-.552-2.952-.552-1.746,0-3.158,.475-4.231,1.421-1.073,.946-1.653,2.525-1.737,4.737-.063,1.871-.063,3.758,0,5.651,.085,2.19,.67,3.767,1.754,4.735,1.084,.968,2.497,1.454,4.245,1.454,1.157,0,2.199-.223,3.125-.664,.927-.442,1.653-1.115,2.179-2.021,.526-.904,.789-2.063,.789-3.472v-1.421h-5.02c-.232,0-.41-.068-.537-.206-.125-.136-.188-.309-.188-.521v-.788c0-.232,.063-.416,.188-.554,.127-.136,.305-.206,.537-.206h6.947c.23,0,.414,.07,.552,.206,.136,.138,.204,.322,.204,.554v2.904c0,1.724-.346,3.23-1.042,4.514-.694,1.284-1.699,2.278-3.014,2.983-1.316,.707-2.9,1.058-4.751,1.058"/>
  <path class="uuid-0b93c5a5-527a-4e4a-a4ba-405941b8916e" d="M184.103,182.295c-.232,0-.41-.063-.537-.19-.125-.125-.19-.304-.19-.536v-14.966c0-.208,.064-.381,.19-.519,.127-.138,.305-.206,.537-.206h1.042c.232,0,.414,.068,.552,.206,.136,.138,.206,.311,.206,.519v1.421c.399-.714,.968-1.251,1.704-1.608,.736-.357,1.619-.537,2.652-.537h1.2c.21,0,.385,.063,.523,.19,.136,.125,.202,.305,.202,.536v.948c0,.212-.066,.379-.202,.506-.138,.125-.313,.19-.523,.19h-1.641c-1.2,0-2.142,.348-2.825,1.04-.686,.697-1.027,1.634-1.027,2.812v9.472c0,.232-.074,.41-.221,.536-.147,.127-.328,.19-.537,.19h-1.104Z"/>
  <path class="uuid-0b93c5a5-527a-4e4a-a4ba-405941b8916e" d="M201.15,180.433c1.369,0,2.473-.44,3.314-1.325s1.296-2.159,1.358-3.822c.02-.315,.031-.714,.031-1.198s-.011-.885-.031-1.2c-.063-1.686-.517-2.963-1.358-3.837-.841-.872-1.945-1.308-3.314-1.308-1.389,0-2.499,.436-3.331,1.308-.832,.874-1.279,2.151-1.342,3.837-.022,.315-.033,.716-.033,1.2s.011,.883,.033,1.198c.063,1.664,.51,2.937,1.342,3.822,.832,.885,1.941,1.325,3.331,1.325m0,2.179c-1.579,0-2.895-.311-3.947-.931-1.053-.62-1.857-1.474-2.414-2.558-.558-1.084-.858-2.308-.9-3.679-.022-.337-.031-.788-.031-1.356s.009-1.019,.031-1.358c.042-1.389,.348-2.62,.916-3.695,.567-1.071,1.378-1.919,2.431-2.54,1.051-.622,2.355-.931,3.914-.931,1.537,0,2.836,.309,3.898,.931,1.064,.62,1.873,1.468,2.433,2.54,.558,1.075,.858,2.306,.9,3.695,.02,.339,.031,.789,.031,1.358s-.011,1.019-.031,1.356c-.042,1.371-.342,2.595-.9,3.679-.559,1.084-1.364,1.938-2.416,2.558-1.053,.62-2.357,.931-3.914,.931"/>
  <path class="uuid-0b93c5a5-527a-4e4a-a4ba-405941b8916e" d="M218.251,182.612c-1.389,0-2.552-.305-3.489-.916-.937-.609-1.636-1.45-2.1-2.525-.462-1.073-.694-2.284-.694-3.631v-8.934c0-.232,.063-.412,.19-.536,.127-.129,.305-.191,.537-.191h1.135c.212,0,.385,.063,.523,.191,.136,.123,.204,.304,.204,.536v8.745c0,3.325,1.452,4.989,4.356,4.989,1.369,0,2.468-.442,3.3-1.327,.832-.885,1.248-2.103,1.248-3.662v-8.745c0-.232,.068-.412,.206-.536,.136-.129,.309-.191,.519-.191h1.137c.232,0,.41,.063,.536,.191,.129,.123,.191,.304,.191,.536v14.965c0,.232-.063,.41-.191,.537-.125,.125-.304,.188-.536,.188h-1.073c-.21,0-.385-.063-.523-.188-.136-.127-.204-.305-.204-.537v-1.421c-.567,.736-1.253,1.33-2.052,1.783-.801,.453-1.873,.679-3.22,.679"/>
  <path class="uuid-0b93c5a5-527a-4e4a-a4ba-405941b8916e" d="M237.711,180.339c1.158,0,2.063-.247,2.714-.742,.653-.495,1.126-1.154,1.422-1.975,.294-.821,.462-1.693,.504-2.619,.022-.611,.022-1.222,0-1.833-.042-.926-.21-1.8-.504-2.62-.296-.819-.769-1.478-1.422-1.973-.651-.495-1.557-.742-2.714-.742-1.093,0-1.984,.258-2.668,.773-.683,.517-1.183,1.169-1.5,1.958-.315,.789-.493,1.584-.536,2.383-.02,.337-.031,.747-.031,1.231s.011,.896,.031,1.233c.02,.778,.199,1.546,.536,2.304,.337,.758,.854,1.384,1.548,1.879,.696,.495,1.568,.742,2.62,.742m-6.566,7.955c-.212,0-.379-.063-.506-.19-.125-.127-.19-.305-.19-.536v-20.964c0-.232,.064-.412,.19-.536,.127-.129,.294-.191,.506-.191h1.104c.21,0,.379,.063,.506,.191,.125,.123,.19,.304,.19,.536v1.421c.524-.714,1.209-1.305,2.052-1.768,.841-.462,1.905-.694,3.187-.694,1.2,0,2.221,.204,3.064,.615,.841,.41,1.526,.97,2.052,1.673,.524,.707,.92,1.5,1.183,2.385,.263,.883,.416,1.811,.458,2.779,.022,.337,.031,.694,.031,1.073s-.009,.738-.031,1.075c-.02,.946-.169,1.866-.442,2.762-.274,.894-.675,1.687-1.2,2.383-.526,.694-1.211,1.251-2.052,1.673-.843,.421-1.864,.631-3.064,.631-1.262,0-2.309-.232-3.141-.694-.83-.464-1.509-1.043-2.035-1.737v7.388c0,.23-.068,.409-.206,.536-.136,.127-.309,.19-.521,.19h-1.135Z"/>
  <path class="uuid-0b93c5a5-527a-4e4a-a4ba-405941b8916e" d="M80.032,151.355h13.169c1.68,0,3.04-1.362,3.04-3.04v-13.169c0-1.68-1.36-3.04-3.04-3.04h-13.169c-1.678,0-3.04,1.36-3.04,3.04v13.169c0,1.678,1.362,3.04,3.04,3.04"/>
  <path class="uuid-0b93c5a5-527a-4e4a-a4ba-405941b8916e" d="M98.788,112.845h12.013c2.569,0,4.67,2.102,4.67,4.671v12.042c0,1.408,1.141,2.549,2.547,2.549h14.166c1.408,0,2.549-1.141,2.549-2.549v-14.166c0-1.406-1.141-2.547-2.549-2.547h-12.07c-2.563,0-4.643-2.078-4.643-4.643v-12.041c0-1.408-1.139-2.547-2.547-2.547h-14.137c-1.408,0-2.547,1.139-2.547,2.547v14.137c0,1.406,1.139,2.547,2.547,2.547"/>
  <path class="uuid-0b93c5a5-527a-4e4a-a4ba-405941b8916e" d="M132.185,170.589h-12.013c-2.569,0-4.67,2.102-4.67,4.67v12.042c0,1.408-1.141,2.549-2.547,2.549h-14.166c-1.408,0-2.549-1.141-2.549-2.549v-14.166c0-1.406,1.141-2.547,2.549-2.547h12.07c2.563,0,4.643-2.078,4.643-4.643v-12.041c0-1.408,1.139-2.547,2.547-2.547h14.137c1.408,0,2.547,1.139,2.547,2.547v14.137c0,1.406-1.139,2.547-2.547,2.547"/>
  <path class="uuid-0b93c5a5-527a-4e4a-a4ba-405941b8916e" d="M74.437,170.619h-12.013c-2.569,0-4.67-2.102-4.67-4.67v-12.042c0-1.408-1.141-2.549-2.547-2.549h-14.166c-1.408,0-2.549,1.141-2.549,2.549v14.166c0,1.406,1.141,2.547,2.549,2.547h12.07c2.563,0,4.643,2.078,4.643,4.641v12.042c0,1.408,1.141,2.547,2.547,2.547h14.137c1.408,0,2.547-1.139,2.547-2.547v-14.137c0-1.406-1.139-2.547-2.547-2.547"/>
  <path class="uuid-0b93c5a5-527a-4e4a-a4ba-405941b8916e" d="M41.04,132.106h14.137c1.406,0,2.547-1.141,2.547-2.547v-12.013c0-2.569,2.102-4.672,4.672-4.672h12.041c1.408,0,2.547-1.139,2.547-2.547v-14.166c0-1.406-1.139-2.547-2.547-2.547h-14.166c-1.406,0-2.547,1.141-2.547,2.547v12.072c0,2.563-2.078,4.641-4.641,4.641h-12.042c-1.408,0-2.549,1.141-2.549,2.549v14.137c0,1.406,1.141,2.547,2.549,2.547"/>
</svg>